<svg width="75" height="42" viewBox="0 0 75 42" fill="none" xmlns="http://www.w3.org/2000/svg">
<path d="M74.0005 40.6133C74.2767 40.6133 74.5005 40.8371 74.5005 41.1133C74.5005 41.3894 74.2767 41.6133 74.0005 41.6133H0.000549316V40.6133H74.0005Z" fill="#BA9578"/>
<path d="M73.5601 8.61917L60.7945 10.583C58.7856 10.8922 56.9884 12.0041 55.814 13.6631L51.2652 20.0869L44.3385 23.4229C41.1093 24.9779 39.1802 28.3703 39.4947 31.9405C39.7223 34.523 42.056 36.3962 44.6265 36.0596L48.065 35.6094C48.3387 35.5736 48.5322 35.3225 48.4967 35.0489C48.4608 34.7752 48.2097 34.5817 47.9361 34.6172L44.4967 35.0684C42.4903 35.3311 40.6687 33.8692 40.4908 31.8535C40.2126 28.6976 41.9186 25.6988 44.773 24.3242L51.7447 20.9668L73.7008 18.1358C73.9744 18.1003 74.1677 17.849 74.1324 17.5752C74.0969 17.3017 73.8464 17.1085 73.5728 17.1436L52.6666 19.8389L56.6295 14.2403C57.6473 12.8025 59.2058 11.8402 60.9469 11.5723L73.7125 9.60745C73.9854 9.56542 74.1724 9.31004 74.1304 9.03714C74.0884 8.76428 73.833 8.57718 73.5601 8.61917ZM74.4215 30.7881L59.9215 33.1192C59.6489 33.163 59.4628 33.4199 59.5064 33.6924C59.5502 33.9649 59.8072 34.1511 60.0797 34.1075L74.5797 31.7754C74.8523 31.7316 75.0385 31.4748 74.9947 31.2022C74.9508 30.9297 74.694 30.7444 74.4215 30.7881Z" fill="#BA9578"/>
<path d="M1.44097 8.61917L14.2066 10.583C16.2155 10.8922 18.0127 12.0041 19.1871 13.6631L23.7359 20.0869L30.522 23.3555C33.8356 24.9512 35.8155 28.4321 35.4927 32.0957C35.2699 34.6239 33.0683 36.5114 30.5357 36.3457L26.9683 36.1123C26.6929 36.0943 26.4837 35.8564 26.5015 35.5811C26.5195 35.3057 26.7574 35.0965 27.0328 35.1143L30.6011 35.3477C32.5913 35.4778 34.3215 33.9946 34.4966 32.0078C34.7828 28.7588 33.027 25.6721 30.0884 24.2569L23.2564 20.9668L1.30034 18.1358C1.02668 18.1003 0.833396 17.849 0.8687 17.5752C0.904205 17.3017 1.1547 17.1085 1.42827 17.1436L22.3345 19.8389L18.3716 14.2403C17.3538 12.8025 15.7953 11.8402 14.0542 11.5723L1.28862 9.60745C1.01573 9.56542 0.828659 9.31004 0.870653 9.03714C0.912717 8.76428 1.16808 8.57718 1.44097 8.61917ZM0.579637 30.7881L15.0796 33.1192C15.3522 33.163 15.5383 33.4199 15.4947 33.6924C15.4509 33.9649 15.1939 34.1511 14.9214 34.1075L0.421434 31.7754C0.148794 31.7316 -0.0374449 31.4748 0.00639525 31.2022C0.0502648 30.9297 0.307127 30.7444 0.579637 30.7881Z" fill="#BA9578"/>
<path d="M48.5005 34.6133C48.5005 31.5757 50.963 29.1133 54.0005 29.1133C57.0381 29.1133 59.5005 31.5757 59.5005 34.6133C59.5005 37.6508 57.0381 40.1133 54.0005 40.1133V41.1133C57.5904 41.1133 60.5005 38.2031 60.5005 34.6133C60.5005 31.0234 57.5904 28.1133 54.0005 28.1133C50.4107 28.1133 47.5005 31.0234 47.5005 34.6133C47.5005 38.2031 50.4107 41.1133 54.0005 41.1133V40.1133C50.963 40.1133 48.5005 37.6508 48.5005 34.6133Z" fill="#BA9578"/>
<path d="M26.5005 34.6133C26.5005 31.5757 24.0381 29.1133 21.0005 29.1133C17.963 29.1133 15.5005 31.5757 15.5005 34.6133C15.5005 37.6508 17.963 40.1133 21.0005 40.1133V41.1133C17.4107 41.1133 14.5005 38.2031 14.5005 34.6133C14.5005 31.0234 17.4107 28.1133 21.0005 28.1133C24.5904 28.1133 27.5005 31.0234 27.5005 34.6133C27.5005 38.2031 24.5904 41.1133 21.0005 41.1133V40.1133C24.0381 40.1133 26.5005 37.6508 26.5005 34.6133Z" fill="#BA9578"/>
<path d="M31.941 9.89844L21.6011 7.97168L27.275 19.2695C27.399 19.516 27.6992 19.6151 27.9459 19.4912C28.1926 19.3673 28.2924 19.0671 28.1685 18.8203L23.4009 9.32324L32.105 10.9473L32.4537 11.0127L37.5045 2.22656L41.8209 12.2168L48.6519 14.4688L41.8052 22.7959C41.6299 23.0091 41.6605 23.3236 41.8736 23.499C42.0869 23.6744 42.4023 23.644 42.5777 23.4307L50.3502 13.9766L42.5611 11.4062L37.6304 0L31.941 9.89844Z" fill="#BA9578"/>
<path d="M69.0005 18.1133L69.0005 10.1133C69.0005 9.83714 69.2244 9.61328 69.5005 9.61328C69.7767 9.61328 70.0005 9.83714 70.0005 10.1133L70.0005 18.1133C70.0005 18.3894 69.7767 18.6133 69.5005 18.6133C69.2244 18.6133 69.0005 18.3894 69.0005 18.1133Z" fill="#BA9578"/>
<path d="M5.00055 18.1133V10.1133C5.00055 9.83714 5.22441 9.61328 5.50055 9.61328C5.77669 9.61328 6.00055 9.83714 6.00055 10.1133V18.1133C6.00055 18.3894 5.77669 18.6133 5.50055 18.6133C5.22441 18.6133 5.00055 18.3894 5.00055 18.1133Z" fill="#BA9578"/>
</svg>
