<svg width="47" height="49" viewBox="0 0 47 49" fill="none" xmlns="http://www.w3.org/2000/svg">
<path d="M2.94727 31.4736C3.96442 31.5771 4.81188 32.2516 5.16699 33.1709C5.22283 33.1493 5.28324 33.1368 5.34668 33.1367H8.79199L16.2773 32.1465C17.4749 31.9277 18.475 31.8167 19.4492 31.8916C20.4354 31.9675 21.3697 32.2327 22.4424 32.7305C23.0294 33.0029 23.6155 33.2296 24.2158 33.3584C26.0219 33.7458 29.8246 34.5619 31.3184 34.8887C32.6405 35.1781 33.2394 36.536 33.1953 37.6738C33.194 37.7077 33.1899 37.7415 33.1875 37.7754C33.2955 37.7096 33.4098 37.6401 33.5293 37.5674C34.4524 37.0057 35.7007 36.2481 36.999 35.4629C39.5873 33.8975 42.3999 32.2087 43.2227 31.7656C45.2912 30.6522 47.6692 33.0164 46.5117 35.1777C46.2451 35.6753 45.7129 36.3177 45.0869 36.9951C44.4504 37.684 43.6797 38.4474 42.9023 39.1943C41.3289 40.7062 39.7584 42.1232 39.0938 42.8125C37.6981 44.2597 36.0609 45.1814 35.3887 45.4727L35.3633 45.4844L35.3359 45.4922C33.4286 46.0727 29.1082 47.3945 27.0723 48.04C24.9974 48.6979 23.5546 48.6416 22.998 48.4805L5.2168 43.6943C5.21272 43.6932 5.2091 43.6906 5.20508 43.6895C4.84931 44.748 3.85218 45.5116 2.67383 45.5117L2.40039 45.4971C1.1421 45.3694 0.141514 44.3696 0.0136719 43.1113L0 42.8379V34.1338C0.000131972 32.6574 1.19738 31.46 2.67383 31.46L2.94727 31.4736ZM45.6299 34.7061C46.3371 33.3859 44.8606 32.0196 43.6963 32.6465C42.9017 33.0744 40.1192 34.7443 37.5166 36.3184C36.2194 37.1029 34.9724 37.8605 34.0498 38.4219C33.5887 38.7024 33.2082 38.9343 32.9434 39.0957C32.8112 39.1763 32.7072 39.2393 32.6367 39.2822C32.623 39.2906 32.6098 39.2979 32.5986 39.3047C32.5908 39.314 32.5842 39.3248 32.5762 39.334C32.1603 39.8112 31.5497 40.1054 30.7764 40.1055C29.4834 40.1054 26.8552 39.9638 24.5674 39.8242C23.4198 39.7542 22.351 39.6843 21.5703 39.6318C21.1804 39.6056 20.8617 39.5837 20.6406 39.5684C20.5302 39.5607 20.4433 39.5549 20.3848 39.5508C20.3558 39.5487 20.3333 39.547 20.3184 39.5459C20.311 39.5454 20.3046 39.5452 20.3008 39.5449C20.2992 39.5447 20.2977 39.544 20.2969 39.5439H20.2949C20.0198 39.5241 19.8125 39.285 19.832 39.0098C19.8517 38.7346 20.091 38.5275 20.3662 38.5469H20.3721C20.3758 38.5471 20.3816 38.5474 20.3887 38.5479C20.4036 38.5489 20.4261 38.5507 20.4551 38.5527C20.5133 38.5568 20.5999 38.5627 20.71 38.5703C20.9305 38.5856 21.2485 38.6076 21.6377 38.6338C22.417 38.6862 23.483 38.7563 24.6279 38.8262C26.925 38.9663 29.5201 39.1054 30.7764 39.1055C31.2769 39.1054 31.6068 38.924 31.8223 38.6768C32.0477 38.4178 32.1803 38.0473 32.1963 37.6348C32.2298 36.7677 31.7716 36.0112 31.1045 35.8652C29.6131 35.539 25.8128 34.7236 24.0059 34.3359C23.3038 34.1853 22.6427 33.925 22.0215 33.6367C21.0341 33.1785 20.2169 32.9537 19.373 32.8887C18.5217 32.8232 17.6155 32.9187 16.4414 33.1338L16.4297 33.1357L16.417 33.1377L8.89355 34.1318L8.86133 34.1367H5.34668V42.7129C5.38957 42.7129 5.43315 42.7169 5.47656 42.7285L23.2588 47.5156L23.2725 47.5195C23.5549 47.6041 24.7833 47.7166 26.7695 47.0869C28.7997 46.4432 33.0861 45.1314 35.0098 44.5459C35.5949 44.2882 37.0979 43.4414 38.374 42.1182C39.0522 41.4148 40.6842 39.9397 42.21 38.4736C42.9822 37.7316 43.7359 36.9837 44.3525 36.3164C44.9795 35.638 45.4301 35.0789 45.6299 34.7061ZM2.67383 32.46C1.74967 32.46 1.00013 33.2097 1 34.1338V42.8379C1.00003 43.7621 1.7496 44.5117 2.67383 44.5117C3.5979 44.5115 4.34665 43.762 4.34668 42.8379V34.1338C4.34655 33.2098 3.59784 32.4601 2.67383 32.46ZM15.4189 21.3857C15.6951 21.3857 15.9189 21.6096 15.9189 21.8857V30.3418C15.9186 30.6177 15.6949 30.8418 15.4189 30.8418C15.1431 30.8417 14.9193 30.6176 14.9189 30.3418V21.8857C14.9189 21.6097 15.1429 21.3859 15.4189 21.3857ZM31.2119 21.3857C31.4879 21.386 31.7119 21.6097 31.7119 21.8857V30.3418C31.7116 30.6175 31.4877 30.8416 31.2119 30.8418C30.936 30.8418 30.7122 30.6177 30.7119 30.3418V21.8857C30.7119 21.6096 30.9358 21.3857 31.2119 21.3857ZM23.5732 0.0078125C26.8582 0.174442 29.4707 2.89137 29.4707 6.21777L29.4629 6.53711C29.332 9.12189 27.6215 11.2887 25.2783 12.0957C31.322 13.0654 35.9395 18.305 35.9395 24.6221V30.2178H34.9395V24.6221C34.9395 18.1683 29.7076 12.936 23.2539 12.9355C16.7998 12.9355 11.5674 18.168 11.5674 24.6221V30.2178H10.5674V24.6221C10.5674 18.306 15.1831 13.0675 21.2256 12.0967C18.8832 11.2891 17.1748 9.12125 17.0439 6.53711L17.0361 6.21777C17.0361 2.78399 19.8201 0 23.2539 0L23.5732 0.0078125ZM23.2539 1C20.3724 1 18.0361 3.33627 18.0361 6.21777C18.0363 9.09911 20.3725 11.4346 23.2539 11.4346C26.1349 11.4341 28.4705 9.09883 28.4707 6.21777C28.4707 3.33655 26.135 1.00045 23.2539 1Z" fill="white"/>
</svg>
