<svg width="47" height="46" viewBox="0 0 47 46" fill="none" xmlns="http://www.w3.org/2000/svg">
<path d="M23.3243 0.5H22.969C22.0885 0.5 21.378 1.21056 21.378 2.09104V40.6622H24.9153V2.09104C24.9153 1.21056 24.2048 0.5 23.3243 0.5Z" stroke="#BA9578" stroke-miterlimit="10"/>
<path d="M9.59713 40.6003H36.928C37.5877 40.6003 38.1226 41.1352 38.1226 41.7949V43.8854C38.1226 44.5451 37.5877 45.08 36.928 45.08H9.59713C8.93739 45.08 8.40256 44.5451 8.40256 43.8854V41.7949C8.40256 41.1352 8.93739 40.6003 9.59713 40.6003Z" stroke="#BA9578" stroke-miterlimit="10"/>
<path d="M45.7739 27.0895C45.6555 31.1675 42.3138 34.4422 38.2049 34.4422C34.096 34.4422 30.7595 31.1675 30.6359 27.0895H45.7739Z" stroke="#BA9578" stroke-miterlimit="10"/>
<path d="M8.12448 8.42432L15.8892 27.0894H0.73567L8.12448 8.42432Z" stroke="#BA9578" stroke-miterlimit="10"/>
<path d="M38.0298 8.42432L45.7894 27.0894H30.6359L38.0298 8.42432Z" stroke="#BA9578" stroke-miterlimit="10"/>
<path d="M15.8737 27.0895C15.7553 31.1675 12.4136 34.4422 8.3047 34.4422C4.19581 34.4422 0.85925 31.1675 0.735675 27.0895H15.8737Z" stroke="#BA9578" stroke-miterlimit="10"/>
<path d="M38.0968 8.29041H8.05756" stroke="#BA9578" stroke-miterlimit="10"/>
</svg>
