<svg width="56" height="32" viewBox="0 0 56 32" fill="none" xmlns="http://www.w3.org/2000/svg">
<path fill-rule="evenodd" clip-rule="evenodd" d="M4.39552 1.69522C4.73706 0.464412 6.00779 -0.258522 7.23732 0.0858449L14.0303 1.98819C15.2121 2.31921 15.9167 3.51373 15.667 4.69913L27.2647 4.0878H27.2744C28.3702 4.0531 29.4657 4.19528 30.5166 4.50967L37.96 6.73233C37.6977 5.65492 38.2354 4.51154 39.2852 4.05557L45.7588 1.24405C46.93 0.735608 48.2874 1.27771 48.792 2.45108L55.1611 17.2665C55.6656 18.4401 55.1281 19.8054 53.957 20.3144L47.4834 23.1269C46.3121 23.6354 44.9547 23.0924 44.4502 21.9189L44.3906 21.7821L42.5664 22.9872C42.7938 23.5036 42.9251 24.0628 42.9375 24.6396C42.955 25.4762 42.4378 26.3815 41.626 26.872C40.9554 27.277 40.1024 27.3915 39.1856 27.0253C39.1578 27.8236 38.9756 28.442 38.666 28.9071C38.2473 29.536 37.6421 29.8165 37.0606 29.913C36.4903 30.0076 35.9246 29.9306 35.5186 29.8398C35.4661 29.828 35.416 29.8129 35.3682 29.8007C35.3549 29.8596 35.3425 29.9221 35.3252 29.9862C35.2135 30.3993 34.9985 30.9552 34.5811 31.3808C34.1402 31.8301 33.5026 32.1019 32.6504 31.9628C31.892 31.8389 30.9881 31.3925 29.8897 30.5233C28.0634 31.5944 26.5572 31.6217 25.4688 31.3251C24.9048 31.1714 24.4681 30.9349 24.1709 30.7353C24.0226 30.6356 23.9077 30.5449 23.8281 30.4765C23.7884 30.4423 23.7567 30.4137 23.7344 30.3925L23.707 30.3661L11.4209 20.039L11.3242 20.3905C10.9829 21.6217 9.71216 22.3453 8.48244 22.0009L1.68947 20.0985C0.45985 19.7541 -0.256087 18.4741 0.0849739 17.2431L4.39552 1.69522ZM15.4082 5.65909L11.6983 19.038L24.3379 29.663L24.3574 29.6796L24.374 29.6962C24.3758 29.6979 24.3801 29.7016 24.3858 29.7069C24.3973 29.7179 24.4165 29.7366 24.4434 29.7597C24.498 29.8066 24.5839 29.8752 24.6983 29.9521C24.9275 30.106 25.2707 30.2923 25.7168 30.414C26.5011 30.6277 27.6552 30.6538 29.1416 29.8593L26.2051 27.1024L26.8516 26.414L30.252 29.6034H30.251C31.4021 30.5545 32.2298 30.9365 32.8037 31.0302C33.3466 31.1186 33.6777 30.9536 33.9072 30.7196C34.1602 30.4617 34.3195 30.0863 34.4131 29.7401C34.4516 29.5977 34.4752 29.4681 34.4912 29.3671L28.0918 23.3036L28.7412 22.6171L35.2461 28.7802C35.2652 28.7869 35.2873 28.7953 35.3125 28.8036C35.4114 28.8363 35.5545 28.8788 35.7246 28.9169C36.0717 28.9946 36.504 29.0461 36.9063 28.9794C37.2968 28.9145 37.6402 28.7436 37.8799 28.3837C38.1152 28.0301 38.2878 27.4338 38.2295 26.4374L30.8106 19.3534L31.4639 18.6698L38.9951 25.8612C39.8952 26.4597 40.6325 26.3685 41.1377 26.0634C41.6907 25.7293 42.0029 25.1236 41.9932 24.6591C41.975 23.8163 41.6304 23.0052 41.0518 22.3739C39.2564 20.4131 34.4612 15.187 32.459 13.1132L32.3115 12.9657C30.8467 11.5386 28.5555 11.4551 26.9492 12.7138L26.7969 12.8398C26.0384 13.4933 24.986 14.2654 23.8428 14.6894C22.6926 15.1159 21.3832 15.2101 20.2119 14.3856C19.2798 13.7297 18.9886 12.7047 19.0195 11.6523C19.0503 10.6081 19.3955 9.46386 19.8193 8.42764C20.2461 7.38458 20.7681 6.41433 21.1807 5.70792C21.2572 5.57696 21.3303 5.45477 21.3985 5.34268L15.4082 5.65909ZM47.9248 2.82803C47.6252 2.13115 46.8215 1.81197 46.1318 2.11124L39.6582 4.92374C38.9686 5.22336 38.6486 6.03045 38.9483 6.72745L45.3174 21.5429C45.6172 22.2395 46.4209 22.5581 47.1104 22.2587L53.584 19.4462C54.2734 19.1465 54.5934 18.3403 54.294 17.6435L47.9248 2.82803ZM27.3135 5.03116L27.3145 5.03213L22.5508 5.28213C22.5331 5.30959 22.5139 5.33959 22.4932 5.37198C22.3699 5.56458 22.1963 5.84341 21.9971 6.18448C21.5975 6.8687 21.0986 7.79782 20.6943 8.78604C20.2874 9.78101 19.9898 10.8016 19.9639 11.6796C19.9383 12.5493 20.177 13.2048 20.7559 13.6122L20.9121 13.7148C21.6999 14.189 22.5931 14.1449 23.5137 13.8036C24.5028 13.4368 25.4555 12.748 26.1797 12.1239C28.1491 10.4263 31.0959 10.4619 32.9707 12.288L33.1387 12.4569L34.0127 13.3739C36.3055 15.7997 40.1815 20.0232 41.749 21.7353C41.8739 21.8714 41.9893 22.0154 42.0967 22.1649L44.0127 20.9013L38.4024 7.85049L30.2451 5.41495C29.2951 5.13076 28.305 5.00072 27.3135 5.03116ZM6.98439 0.996001C6.26129 0.793566 5.50779 1.2185 5.3047 1.9501L0.99513 17.498C0.792443 18.2298 1.21825 18.9858 1.94142 19.1884L8.73536 21.0907C9.45857 21.2931 10.2122 20.8675 10.4151 20.1356L14.7246 4.58877C14.9272 3.85714 14.5012 3.10206 13.7783 2.89932L6.98439 0.996001ZM49.8369 14.7411C51.1226 14.7413 52.1602 15.7887 52.1602 17.0751C52.16 18.3614 51.1225 19.4079 49.8369 19.4081C48.5512 19.4081 47.5128 18.3615 47.5127 17.0751C47.5127 15.7886 48.5511 14.7412 49.8369 14.7411ZM5.63673 13.9823C6.92246 13.9823 7.96077 15.029 7.96095 16.3153C7.96089 17.6018 6.92253 18.6493 5.63673 18.6493C4.35109 18.6491 3.31355 17.6017 3.31349 16.3153C3.31366 15.0291 4.35116 13.9825 5.63673 13.9823ZM49.8369 15.6864C49.0777 15.6865 48.457 16.306 48.457 17.0751C48.4572 17.8441 49.0778 18.4637 49.8369 18.4638C50.5959 18.4636 51.2157 17.844 51.2158 17.0751C51.2158 16.3061 50.596 15.6866 49.8369 15.6864ZM5.63673 14.9267C4.87773 14.9269 4.258 15.5465 4.25783 16.3153C4.25789 17.0843 4.87766 17.7038 5.63673 17.704C6.39596 17.704 7.01558 17.0844 7.01564 16.3153C7.01546 15.5463 6.39589 14.9267 5.63673 14.9267Z" fill="white"/>
</svg>
