<svg width="52" height="40" viewBox="0 0 52 40" fill="none" xmlns="http://www.w3.org/2000/svg">
<path d="M39.3762 23.055L51.171 11.2601C51.5473 10.8839 51.5473 10.2796 51.171 9.90337L42.0498 0.782186C41.6736 0.405938 41.0693 0.405938 40.6931 0.782186L32.484 8.99126C30.8536 7.80551 28.6189 7.17843 26.1277 6.78508L19.663 10.5133C18.2207 11.3457 17.7248 13.187 18.5571 14.6293C19.3894 16.0716 21.2307 16.5675 22.673 15.7352L28.5847 12.2065L43.0988 26.7205C44.0166 27.6384 44.0166 29.1263 43.0988 30.0441C42.1809 30.9619 40.7044 31.2583 39.7866 30.3405" stroke="#BA9578" stroke-miterlimit="10"/>
<path d="M14.2074 26.179L12.406 27.9804C12.406 27.9804 12.4003 27.9861 12.3946 27.9918L14.2074 26.179Z" stroke="#BA9578" stroke-miterlimit="10"/>
<path d="M20.0393 27.1025C20.9571 26.1847 22.445 26.1847 23.3628 27.1025L23.6479 27.3876C24.5657 28.3054 24.5657 29.7933 23.6479 30.7111L21.1966 33.1624L21.208 33.1738L22.7415 31.6403C23.6593 30.7225 25.1472 30.7225 26.065 31.6403C26.9828 32.5582 26.9828 34.0461 26.065 34.9639L24.5315 36.4974L26.1448 38.1107C27.1424 39.1083 28.7557 39.1083 29.7534 38.1107C30.751 37.113 30.9676 35.2774 29.97 34.2798L28.1287 32.4385L28.1173 32.4498L33.4246 37.7572C34.3425 38.675 35.8303 38.675 36.7482 37.7572C37.666 36.8394 37.666 35.3515 36.7482 34.4337L32.3643 30.0499L32.4042 30.0099L37.4437 35.0494C38.4242 36.0299 40.0204 36.0299 41.0066 35.0494C41.9871 34.0689 41.9871 32.4726 41.0066 31.4864L36.714 27.1938" stroke="#BA9578" stroke-miterlimit="10"/>
<path d="M16.5561 6.42594L11.6934 1.6316C11.454 1.39217 11.0606 1.39217 10.8212 1.6316L0.679573 11.7732C0.440142 12.0127 0.440142 12.406 0.679573 12.6454L4.07721 16.0431L10.8896 22.8555" stroke="#BA9578" stroke-miterlimit="10"/>
<path d="M20.273 23.4369C19.3552 22.5191 17.8673 22.5191 16.9495 23.4369L16.4877 23.8987C16.4877 23.8987 16.482 23.9044 16.4763 23.9101L14.2074 26.179L12.3946 27.9918C11.4882 28.9096 11.4882 30.3918 12.406 31.3039C13.3238 32.2217 14.8117 32.2217 15.7295 31.3039L17.5309 29.5025L20.2673 26.7661C21.1851 25.8483 21.1851 24.3604 20.2673 23.4426L20.273 23.4369Z" stroke="#BA9578" stroke-miterlimit="10"/>
<path d="M16.4764 20.5866C15.5586 19.6687 14.0707 19.6687 13.1528 20.5866L10.8839 22.8555L9.07112 24.6683C8.1533 25.5861 8.1533 27.074 9.07112 27.9918C9.98893 28.9096 11.4768 28.9096 12.3946 27.9918C12.3946 27.9918 12.4003 27.9804 12.406 27.9747L14.2075 26.1733L16.4878 23.893C17.3942 22.9752 17.3942 21.493 16.4764 20.5809V20.5866Z" stroke="#BA9578" stroke-miterlimit="10"/>
<path d="M14.2074 26.179L16.4763 23.9101C16.4763 23.9101 16.482 23.9044 16.4877 23.8987L14.2074 26.179Z" stroke="#BA9578" stroke-miterlimit="10"/>
<path d="M23.6479 27.3876L23.3628 27.1025C22.445 26.1847 20.9571 26.1847 20.0393 27.1025L17.588 29.5539L15.9063 31.2356C14.9884 32.1534 14.9884 33.6413 15.9063 34.5591L16.1913 34.8442C17.1091 35.762 18.597 35.762 19.5148 34.8442L21.1965 33.1624L23.6479 30.7111C24.5657 29.7933 24.5657 28.3054 23.6479 27.3876Z" stroke="#BA9578" stroke-miterlimit="10"/>
<path d="M26.0706 31.646C25.1528 30.7282 23.6649 30.7282 22.7471 31.646L21.2136 33.1795L19.9367 34.4565C19.0188 35.3743 19.0188 36.8622 19.9367 37.78C20.8545 38.6978 22.3424 38.6978 23.2602 37.78L24.5371 36.503L26.0706 34.9695C26.9885 34.0517 26.9885 32.5638 26.0706 31.646Z" stroke="#BA9578" stroke-miterlimit="10"/>
<path d="M16.5561 6.42602C16.5561 6.42602 21.282 6.08398 26.139 6.77947" stroke="#BA9578" stroke-miterlimit="10"/>
</svg>
