<svg width="64" height="46" viewBox="0 0 64 46" fill="none" xmlns="http://www.w3.org/2000/svg">
<path d="M8.06587 19.5834C8.33369 19.5166 8.60536 19.6799 8.67231 19.9477L9.67231 23.9477C9.73914 24.2155 9.57588 24.4872 9.30806 24.5541C9.04023 24.621 8.76857 24.4577 8.70161 24.1899L7.70161 20.1899C7.63479 19.9221 7.79805 19.6504 8.06587 19.5834Z" fill="#BA9578"/>
<path d="M12.0659 18.5834C12.3337 18.5166 12.6054 18.6799 12.6723 18.9477L13.6723 22.9477C13.7391 23.2155 13.5759 23.4872 13.3081 23.5541C13.0402 23.621 12.7686 23.4577 12.7016 23.1899L11.7016 19.1899C11.6348 18.9221 11.798 18.6504 12.0659 18.5834Z" fill="#BA9578"/>
<path d="M63.1869 44.5688C63.463 44.5688 63.6869 44.7927 63.6869 45.0688C63.6869 45.345 63.463 45.5688 63.1869 45.5688H1.18689C0.910747 45.5688 0.68689 45.345 0.68689 45.0688C0.68689 44.7927 0.910747 44.5688 1.18689 44.5688H63.1869Z" fill="#BA9578"/>
<path d="M27.0745 9.5816C27.3435 9.5196 27.612 9.68757 27.6741 9.9566L30.6741 22.9566C30.7361 23.2256 30.5681 23.4941 30.2991 23.5562C30.0301 23.6182 29.7616 23.4502 29.6995 23.1812L26.6995 10.1812C26.6375 9.91218 26.8055 9.64368 27.0745 9.5816Z" fill="#BA9578"/>
<path d="M35.9945 6.60688C36.2493 6.50072 36.5426 6.62153 36.6488 6.87641L41.6488 18.8764C41.7549 19.1313 41.6341 19.4245 41.3792 19.5307C41.1243 19.6369 40.8311 19.5161 40.7249 19.2612L35.7249 7.26118C35.6188 7.00629 35.7396 6.71308 35.9945 6.60688Z" fill="#BA9578"/>
<path d="M1.86535 24.3521C2.19951 25.3793 3.30332 25.9413 4.33056 25.6071L28.6959 17.6811L27.4857 13.9609L3.12037 21.8869C2.09319 22.2211 1.53129 23.3249 1.86535 24.3521ZM0.914402 24.6615C0.409498 23.1091 1.25865 21.4409 2.81103 20.936L28.1273 12.7006L29.9562 18.3228L4.6399 26.5581C3.08747 27.0631 1.4194 26.2139 0.914402 24.6615Z" fill="#BA9578"/>
<path d="M23.7035 6.07651L23.3941 5.12556L36.8152 0.75973L37.1245 1.71068L23.7035 6.07651ZM22.7693 7.91157C23.018 8.6762 23.8397 9.09451 24.6043 8.84579L38.0254 4.47995C38.79 4.23122 39.2083 3.40953 38.9596 2.6449C38.7108 1.88036 37.8891 1.46196 37.1245 1.71068L36.8152 0.75973L37.0578 0.694165C38.1933 0.448075 39.3516 1.0379 39.8208 2.10082L39.9105 2.33556C40.3039 3.54486 39.7084 4.83858 38.5694 5.34119L38.3347 5.4309L24.9137 9.79674L24.6711 9.8623C23.4545 10.1259 22.2117 9.43016 21.8183 8.22091L21.7528 7.97832C21.5068 6.84281 22.0965 5.68441 23.1594 5.21527L23.3941 5.12556L23.7035 6.07651C22.9389 6.32524 22.5206 7.14698 22.7693 7.91157Z" fill="#BA9578"/>
<path d="M29.3707 24.2884L29.0614 23.3375L42.4824 18.9716L42.7918 19.9226L29.3707 24.2884ZM28.4365 26.1235C28.6852 26.8881 29.5069 27.3064 30.2716 27.0577L43.6926 22.6919C44.4572 22.4431 44.8755 21.6214 44.6268 20.8568C44.378 20.0923 43.5563 19.6739 42.7918 19.9226L42.4824 18.9716L42.725 18.9061C43.8606 18.66 45.0188 19.2498 45.4881 20.3127L45.5778 20.5475C45.9711 21.7568 45.3756 23.0505 44.2367 23.5531L44.0019 23.6428L30.5809 28.0087L30.3383 28.0742C29.1217 28.3378 27.8789 27.6421 27.4856 26.4328L27.42 26.1902C27.1741 25.0547 27.7637 23.8963 28.8266 23.4272L29.0614 23.3375L29.3707 24.2884C28.6061 24.5372 28.1879 25.3589 28.4365 26.1235Z" fill="#BA9578"/>
<path d="M55.6869 43.0688C55.6869 40.5836 53.6722 38.5688 51.1869 38.5688H29.1869C26.7016 38.5688 24.6869 40.5836 24.6869 43.0688V44.5688H55.6869V43.0688ZM56.6869 45.5688H23.6869V43.0688C23.6869 40.0313 26.1493 37.5688 29.1869 37.5688H51.1869C54.2245 37.5688 56.6869 40.0313 56.6869 43.0688V45.5688Z" fill="#BA9578"/>
<path d="M55.393 30.2173C55.4999 29.9626 55.7927 29.8428 56.0473 29.9497L62.3803 32.6079C62.6349 32.7147 62.7547 33.0076 62.6479 33.2622C62.5411 33.5168 62.2482 33.6366 61.9936 33.5298L55.6606 30.8716C55.406 30.7647 55.2862 30.4719 55.393 30.2173ZM63.1128 25.1694C63.3857 25.1285 63.64 25.3164 63.6811 25.5893C63.722 25.8624 63.5343 26.1177 63.2612 26.1587L56.9282 27.1079C56.6551 27.1488 56.3998 26.9601 56.3588 26.687C56.3181 26.414 56.5068 26.1596 56.7797 26.1186L63.1128 25.1694ZM58.9653 17.7534C59.1395 17.5391 59.4551 17.507 59.6694 17.6811C59.8833 17.8554 59.9157 18.1701 59.7417 18.3843L55.5747 23.5112C55.4004 23.7251 55.0857 23.7575 54.8715 23.5835C54.6573 23.4093 54.6251 23.0946 54.7993 22.8804L58.9653 17.7534Z" fill="#BA9578"/>
<path d="M49.1869 32.5688C52.2245 32.5688 54.6869 35.0313 54.6869 38.0688H54.1869V38.5688H25.1869V38.0688H24.6869C24.6869 35.0313 27.1493 32.5688 30.1869 32.5688H49.1869ZM30.1869 33.5688C27.8706 33.5688 25.964 35.3189 25.7152 37.5688H53.6586C53.4098 35.3189 51.5031 33.5688 49.1869 33.5688H30.1869Z" fill="#BA9578"/>
</svg>
