<svg width="52" height="42" viewBox="0 0 52 42" fill="none" xmlns="http://www.w3.org/2000/svg">
<path d="M49.4465 6.86206H1.69145C1.03343 6.86206 0.5 7.39549 0.5 8.05351V39.3962C0.5 40.0542 1.03343 40.5876 1.69145 40.5876H49.4465C50.1045 40.5876 50.638 40.0542 50.638 39.3962V8.05351C50.638 7.39549 50.1045 6.86206 49.4465 6.86206Z" stroke="#BA9578" stroke-miterlimit="10"/>
<path d="M35.2744 0.5H15.8691C15.6865 0.5 15.5385 0.648044 15.5385 0.830652V6.6682C15.5385 6.85081 15.6865 6.99884 15.8691 6.99884H35.2744C35.457 6.99884 35.605 6.85081 35.605 6.6682V0.830652C35.605 0.648044 35.457 0.5 35.2744 0.5Z" stroke="#BA9578" stroke-miterlimit="10"/>
<path d="M31.5348 23.4111H19.6088C19.4577 23.4111 19.3352 23.5336 19.3352 23.6848V30.138C19.3352 30.2891 19.4577 30.4116 19.6088 30.4116H31.5348C31.6859 30.4116 31.8084 30.2891 31.8084 30.138V23.6848C31.8084 23.5336 31.6859 23.4111 31.5348 23.4111Z" stroke="#BA9578" stroke-miterlimit="10"/>
<path d="M0.488525 25.7827H19.2953" stroke="#BA9578" stroke-miterlimit="10"/>
<path d="M31.74 25.7827H50.5467" stroke="#BA9578" stroke-miterlimit="10"/>
</svg>
