<svg width="52" height="48" viewBox="0 0 52 48" fill="none" xmlns="http://www.w3.org/2000/svg">
<path d="M46.125 0.142578L48.3369 0.151367L47.541 0.526367C50.0209 1.00271 51.8955 3.18335 51.8955 5.80176V9.11816H42.2676V41.4541H42.2617V41.6992C42.2616 44.666 39.8545 47.0732 36.8877 47.0732C36.8782 47.0732 36.8688 47.0723 36.8594 47.0723V47.2559H4.06836C1.82567 47.2557 0 45.4582 0 43.2324V38.457H5.76367V5.60254C5.76367 2.51023 8.2739 0 11.3662 0H11.3682L46.125 0.142578ZM1 43.2324C1 44.8944 2.36641 46.2557 4.06836 46.2559H34.041C32.524 45.3057 31.5138 43.6203 31.5137 41.6992V39.457H1V43.2324ZM11.3652 1C8.82549 1.00032 6.76367 3.06272 6.76367 5.60254V38.457H31.9229V38.8828H32.5137V41.6992C32.5138 44.1137 34.4732 46.0732 36.8877 46.0732C39.3022 46.0732 41.2616 44.1137 41.2617 41.6992V38.8828H41.2676V9.11816H41.1533V5.80176C41.1533 5.42359 41.1932 5.05437 41.2676 4.69824V4.29492L41.2764 4.24902C41.3693 3.75826 41.6552 3.30416 42.002 2.90527C42.4713 2.17393 43.1125 1.56355 43.8691 1.13184L11.3652 1ZM34.0088 31.75H12.4775V30.75H34.0088V31.75ZM34.0088 27.1436H12.4775V26.1436H34.0088V27.1436ZM34.0088 22.5371H12.4775V21.5371H34.0088V22.5371ZM34.0088 17.9258H12.4775V16.9258H34.0088V17.9258ZM34.0088 13.3193H12.4775V12.3193H34.0088V13.3193ZM46.5244 1.42773C46.1556 1.42802 45.7973 1.47321 45.4551 1.55957C45.1283 1.74287 44.7416 1.96984 44.3516 2.23047C43.8431 2.57024 43.3402 2.95493 42.9492 3.35254C42.8999 3.40268 42.8527 3.45203 42.8086 3.50098C42.5614 3.89953 42.3766 4.34041 42.2676 4.81055V8.11816H50.8955V5.80176C50.8955 3.38809 48.9378 1.42917 46.5244 1.42773Z" fill="white"/>
</svg>
