<svg width="54" height="42" viewBox="0 0 54 42" fill="none" xmlns="http://www.w3.org/2000/svg">
<g clip-path="url(#clip0_126_9692)">
<path d="M0.285522 41.7126H53.7145" stroke="#BA9578" stroke-width="0.95" stroke-linecap="round" stroke-linejoin="round"/>
<path d="M16.0986 20.0271C17.1556 21.6017 20.272 27.6308 17.271 40.6349C17.1556 41.1438 17.7388 41.527 18.1701 41.2217C27.246 34.8154 35.0098 34.8992 36.893 35.0309C37.1542 35.0489 37.3912 34.8932 37.4762 34.6477L41.674 22.6435C41.759 22.404 41.674 22.1405 41.4614 21.9969L27.1124 11.8666C26.9119 11.7229 26.6325 11.7229 26.432 11.8666L16.2383 19.2487C15.9892 19.4284 15.9285 19.7636 16.0986 20.0151V20.0271Z" stroke="#BA9578" stroke-width="0.95" stroke-linecap="round" stroke-linejoin="round"/>
<path d="M50.6526 14.5511L30.7545 0.391793C30.496 0.207907 30.1353 0.265299 29.9487 0.519981L23.8357 8.86425C23.6491 9.11894 23.7074 9.47447 23.9658 9.65835L43.8639 23.8177C44.1224 24.0016 44.4831 23.9442 44.6697 23.6895L50.7827 15.3452C50.9693 15.0905 50.9111 14.735 50.6526 14.5511Z" stroke="#BA9578" stroke-width="0.95" stroke-linecap="round" stroke-linejoin="round"/>
<path d="M27.8961 29.5467C29.5065 29.5467 30.812 28.26 30.812 26.6729C30.812 25.0857 29.5065 23.799 27.8961 23.799C26.2856 23.799 24.9801 25.0857 24.9801 26.6729C24.9801 28.26 26.2856 29.5467 27.8961 29.5467Z" stroke="#BA9578" stroke-width="0.95" stroke-linecap="round" stroke-linejoin="round"/>
<path d="M17.4229 41.3654L26.2922 29.1635" stroke="#BA9578" stroke-width="0.95" stroke-linecap="round" stroke-linejoin="round"/>
</g>
<defs>
<clipPath id="clip0_126_9692">
<rect width="54" height="42" fill="white"/>
</clipPath>
</defs>
</svg>
