<svg width="14" height="14" viewBox="0 0 14 14" fill="none" xmlns="http://www.w3.org/2000/svg">
<g clip-path="url(#clip0_126_9842)">
<path d="M0 14C0.0454545 13.8636 0.0909091 13.75 0.113636 13.6363C0.409091 12.7272 0.727273 11.8409 1.02273 10.9318C1.09091 10.75 1.15909 10.5681 1.20455 10.3863C1.20455 10.3636 1.20455 10.3181 1.20455 10.2954C0.772727 9.56813 0.477273 8.81813 0.340909 7.99995C0.295455 7.68177 0.25 7.36359 0.25 7.06813C0.204545 6.11359 0.386364 5.18177 0.75 4.27268C1.06818 3.52268 1.47727 2.84086 2.04545 2.22722C2.84091 1.36359 3.81818 0.727224 4.93182 0.363587C5.5 0.181769 6.06818 0.0681328 6.65909 0.0226782C7.79546 -0.0455036 8.88636 0.136315 9.93182 0.59086C10.6818 0.909042 11.3409 1.36359 11.9318 1.93177C12.8182 2.79541 13.4318 3.84086 13.7727 5.02268C13.9318 5.56813 14 6.11359 14 6.68177C14 7.81813 13.7727 8.88632 13.25 9.88632C12.7955 10.7727 12.1818 11.5227 11.3864 12.1363C10.6591 12.7045 9.86364 13.1136 8.97727 13.3636C8.47727 13.5 7.97727 13.5909 7.47727 13.6136C6.18182 13.6818 4.97727 13.409 3.84091 12.7954C3.81818 12.7954 3.77273 12.7954 3.75 12.7954C2.72727 13.1136 1.70455 13.4545 0.659091 13.7727C0.454545 13.8409 0.25 13.909 0.0681818 13.9545C0.0681818 13.9545 0.0227273 13.9545 0 13.9545L0 14ZM1.72727 12.3181C1.72727 12.3181 1.75 12.3181 1.77273 12.3181C2.47727 12.0909 3.18182 11.8636 3.86364 11.659C3.90909 11.659 3.95455 11.659 4 11.659C4.75 12.1363 5.59091 12.4318 6.47727 12.5454C7.11364 12.6136 7.72727 12.5909 8.34091 12.4545C9.61364 12.1818 10.7045 11.5454 11.5455 10.5227C12.5909 9.27268 13.0227 7.84086 12.8636 6.2045C12.7955 5.59086 12.6364 5.02268 12.3864 4.4545C11.8182 3.22722 10.9318 2.29541 9.72727 1.7045C8.68182 1.18177 7.59091 0.999951 6.43182 1.13631C5.72727 1.22722 5.04546 1.43177 4.43182 1.77268C3.36364 2.34086 2.52273 3.18177 1.97727 4.27268C1.40909 5.38632 1.22727 6.56813 1.43182 7.79541C1.56818 8.65904 1.90909 9.4545 2.43182 10.159C2.43182 10.159 2.43182 10.2272 2.43182 10.25C2.25 10.7727 2.06818 11.2954 1.90909 11.8181C1.84091 11.9772 1.79545 12.159 1.72727 12.3409V12.3181Z" fill="#5E4F4A"/>
<path d="M3.77271 5.29528C3.77271 4.74982 3.97725 4.27255 4.36361 3.90891C4.47725 3.79528 4.63634 3.74982 4.79543 3.7271C4.90907 3.7271 4.99998 3.70437 5.11361 3.68164C5.24998 3.68164 5.36361 3.7271 5.40907 3.84073C5.47725 3.9771 5.54543 4.11346 5.59089 4.24982C5.72725 4.59073 5.88634 4.93164 6.02271 5.27255C6.06816 5.36346 6.04543 5.45437 6.02271 5.54528C5.9318 5.77255 5.74998 5.95437 5.59089 6.13619C5.47725 6.27255 5.45452 6.34073 5.54543 6.47709C5.97725 7.20437 6.54543 7.79528 7.29543 8.18164C7.47725 8.29528 7.6818 8.36346 7.88634 8.45437C8.02271 8.49982 8.09089 8.49982 8.1818 8.38619C8.36361 8.15891 8.54543 7.93164 8.72725 7.72709C8.79543 7.63619 8.88634 7.59073 8.99998 7.63619C9.09089 7.65891 9.20452 7.70437 9.29543 7.74982C9.6818 7.93164 10.0682 8.11346 10.4545 8.29528C10.5454 8.34073 10.6136 8.40891 10.6136 8.52255C10.6136 8.77255 10.5682 8.99982 10.4773 9.22709C10.4091 9.36346 10.2954 9.47709 10.1818 9.568C9.95452 9.74982 9.6818 9.90891 9.38634 9.95437C9.15907 9.99982 8.9318 10.0453 8.70452 9.97709C8.54543 9.93164 8.36361 9.88619 8.20452 9.84073C7.79543 9.70437 7.38634 9.568 7.0227 9.38619C6.49998 9.13619 6.04543 8.79528 5.63634 8.38619C5.20452 7.9771 4.84089 7.52255 4.49998 7.04528C4.31816 6.77255 4.11361 6.47709 3.99998 6.18164C3.88634 5.88619 3.79543 5.59073 3.79543 5.27255L3.77271 5.29528Z" fill="#5E4F4A"/>
</g>
<defs>
<clipPath id="clip0_126_9842">
<rect width="14" height="14" fill="white"/>
</clipPath>
</defs>
</svg>
